<svg width="300" height="300" viewBox="0 0 300 300" fill="none" xmlns="http://www.w3.org/2000/svg">
<rect x="0.5" y="0.5" width="299" height="299" rx="3.5" fill="white"/>
<path d="M162.199 166.667H137.794C136.611 166.667 135.476 166.197 134.64 165.36C133.803 164.523 133.333 163.388 133.333 162.205V137.795C133.333 136.612 133.803 135.477 134.64 134.64C135.476 133.803 136.611 133.333 137.794 133.333H162.199C163.382 133.333 164.516 133.803 165.353 134.64C166.189 135.477 166.659 136.612 166.659 137.795V162.205C166.659 163.388 166.189 164.523 165.353 165.36C164.516 166.197 163.382 166.667 162.199 166.667ZM137.794 135.897C137.291 135.897 136.808 136.097 136.452 136.453C136.097 136.809 135.897 137.292 135.897 137.795V162.205C135.897 162.708 136.097 163.191 136.452 163.547C136.808 163.903 137.291 164.103 137.794 164.103H162.199C162.702 164.103 163.184 163.903 163.54 163.547C163.896 163.191 164.096 162.708 164.096 162.205V137.795C164.096 137.292 163.896 136.809 163.54 136.453C163.184 136.097 162.702 135.897 162.199 135.897H137.794Z" fill="#AAAAAA"/>
<path d="M134.615 161.641C134.43 161.64 134.248 161.601 134.08 161.524C133.912 161.447 133.762 161.336 133.641 161.197C133.532 161.068 133.449 160.919 133.397 160.758C133.346 160.597 133.327 160.427 133.341 160.259C133.355 160.09 133.403 159.926 133.481 159.776C133.559 159.626 133.665 159.493 133.795 159.385L142.545 152C143.198 151.448 144.034 151.162 144.889 151.197C145.743 151.231 146.553 151.585 147.159 152.188L151.312 156.342C151.467 156.474 151.664 156.547 151.868 156.547C152.071 156.547 152.268 156.474 152.423 156.342L156.456 153.419C157.054 152.959 157.787 152.709 158.541 152.709C159.296 152.709 160.029 152.959 160.626 153.419L166.181 157.846C166.313 157.952 166.424 158.082 166.505 158.23C166.587 158.379 166.639 158.541 166.658 158.71C166.678 158.878 166.663 159.048 166.616 159.211C166.57 159.374 166.491 159.526 166.386 159.658C166.28 159.791 166.15 159.901 166.002 159.983C165.854 160.065 165.691 160.117 165.523 160.136C165.354 160.155 165.184 160.141 165.021 160.094C164.859 160.047 164.707 159.969 164.574 159.863L159.037 155.419C158.888 155.304 158.704 155.241 158.516 155.241C158.327 155.241 158.144 155.304 157.995 155.419L153.961 158.547C153.305 159.04 152.493 159.28 151.674 159.224C150.855 159.167 150.083 158.818 149.501 158.239L145.348 154C145.191 153.858 144.987 153.78 144.775 153.78C144.564 153.78 144.36 153.858 144.203 154L135.435 161.35C135.206 161.544 134.915 161.647 134.615 161.641ZM155.123 149.573C154.194 149.573 153.285 149.297 152.512 148.78C151.739 148.264 151.137 147.53 150.781 146.671C150.426 145.812 150.333 144.867 150.514 143.955C150.695 143.043 151.143 142.205 151.8 141.548C152.457 140.89 153.295 140.443 154.206 140.261C155.118 140.08 156.063 140.173 156.922 140.529C157.781 140.885 158.515 141.487 159.031 142.26C159.548 143.033 159.823 143.942 159.823 144.872C159.823 146.119 159.328 147.314 158.447 148.196C157.565 149.077 156.37 149.573 155.123 149.573ZM155.123 142.735C154.701 142.735 154.288 142.86 153.937 143.095C153.585 143.33 153.311 143.664 153.15 144.054C152.988 144.445 152.946 144.874 153.028 145.289C153.111 145.703 153.314 146.084 153.613 146.383C153.912 146.682 154.292 146.885 154.707 146.968C155.121 147.05 155.551 147.008 155.941 146.846C156.331 146.684 156.665 146.41 156.9 146.059C157.134 145.708 157.26 145.294 157.26 144.872C157.26 144.305 157.035 143.762 156.634 143.361C156.233 142.96 155.69 142.735 155.123 142.735Z" fill="#AAAAAA"/>
<rect x="0.5" y="0.5" width="299" height="299" rx="3.5" stroke="#AAAAAA"/>
</svg>
